<svg xmlns="http://www.w3.org/2000/svg" width="192" height="192" viewBox="0 0 192 192">
  <defs>
    <linearGradient id="bg" x1="0" y1="0" x2="1" y2="1">
      <stop offset="0%" stop-color="#0b6c44" />
      <stop offset="100%" stop-color="#0f9d58" />
    </linearGradient>
  </defs>
  <rect width="192" height="192" rx="44" fill="url(#bg)" />
  <circle cx="96" cy="96" r="72" fill="#ffffff" opacity="0.09" />
  <path d="M46 43h58c17 0 30 13 30 30v74c-9-8-21-12-34-12H46z" fill="#f7fff9" />
  <path d="M46 43h58c17 0 30 13 30 30v14c-6-5-14-8-23-8H46z" fill="#dcf8e8" />
  <rect x="57" y="75" width="58" height="8" rx="4" fill="#0f9d58" opacity="0.9" />
  <rect x="57" y="92" width="50" height="8" rx="4" fill="#0f9d58" opacity="0.8" />
  <rect x="57" y="109" width="42" height="8" rx="4" fill="#0f9d58" opacity="0.7" />
  <circle cx="140" cy="122" r="24" fill="#0a7b49" />
  <path d="M130 122l7 7 13-13" fill="none" stroke="#ffffff" stroke-width="7" stroke-linecap="round" stroke-linejoin="round" />
</svg>
