<svg xmlns="http://www.w3.org/2000/svg" width="512" height="512" viewBox="0 0 512 512">
  <defs>
    <linearGradient id="bg" x1="0" y1="0" x2="1" y2="1">
      <stop offset="0%" stop-color="#0b6c44" />
      <stop offset="100%" stop-color="#0f9d58" />
    </linearGradient>
  </defs>
  <rect width="512" height="512" fill="url(#bg)" />
  <circle cx="256" cy="256" r="196" fill="#ffffff" opacity="0.09" />
  <path d="M122 112h156c44 0 78 34 78 78v200c-24-21-57-33-92-33H122z" fill="#f7fff9" />
  <path d="M122 112h156c44 0 78 34 78 78v37c-18-14-38-21-61-21H122z" fill="#dcf8e8" />
  <rect x="152" y="196" width="162" height="24" rx="12" fill="#0f9d58" opacity="0.9" />
  <rect x="152" y="244" width="140" height="24" rx="12" fill="#0f9d58" opacity="0.8" />
  <rect x="152" y="292" width="116" height="24" rx="12" fill="#0f9d58" opacity="0.7" />
  <circle cx="376" cy="326" r="66" fill="#0a7b49" />
  <path d="M349 326l20 20 36-36" fill="none" stroke="#ffffff" stroke-width="18" stroke-linecap="round" stroke-linejoin="round" />
</svg>
